<svg xmlns="http://www.w3.org/2000/svg" width="168" height="60" viewBox="0 0 84 30" fill-rule="evenodd"><style>path { stroke: black; stroke-width: .5; }</style><path fill="#ff0" d="M1 1v21h3v-6h6v13h3v-21h-3v5h-6v-12h-3z"/><path fill="#fc0" d="M16 5v11h11v-3h-8v-5h8v-3h-11m0 17v3h11v-3h-11z"/><path fill="#f90" d="M30 5v11l7 9h3v-1l-6-8c8 0 8-11 0-11h-1m0 3v5h1c4 0 4-5 0-5h-1m0-3h-3z"/><path fill="#f60" d="M43 5v11h3v-8c8.5 0 8.5 14 0 14h-3v3h3c12.5 0 12.5-20 0-20h-3z"/><path fill="#f30" d="M58 5v11h11v-3h-8v-5h8v-3h-11m0 17v3h11v-3h-11z"/><path fill="#f00" d="M72 5v11l7 9v4h3v-5l-6-8c8 0 8-11 0-11h-1m0 3v5h1c4 0 4-5 0-5h-1m0-3h-3z"/></svg>